<svg width="31" height="28" viewBox="0 0 31 28" fill="none" xmlns="http://www.w3.org/2000/svg">
<path d="M17.1536 3.0359L14.9887 5.27201L12.8238 3.05474C11.4602 1.83521 9.69683 1.19268 7.88983 1.25697C6.08283 1.32126 4.36694 2.08758 3.08882 3.40111C1.8107 4.71463 1.06563 6.47745 1.00413 8.33342C0.942634 10.1894 1.56929 12.0002 2.75751 13.3999L4.92243 15.6234L9.96781 20.8054L14.9887 26L20.0341 20.818L25.0795 15.636L27.2199 13.3999C28.5105 12.0156 29.2219 10.1672 29.2017 8.25078C29.1815 6.3343 28.4313 4.50219 27.1118 3.14696C25.7923 1.79173 24.0085 1.02119 22.1425 1.00043C20.2766 0.979672 18.477 1.71034 17.1292 3.0359H17.1536Z" stroke="#5F665F" stroke-width="2"/>
</svg>
